<mxfile host="app.diagrams.net" modified="2024-03-18T18:46:54.302Z" agent="Mozilla/5.0 (Windows NT 10.0; Win64; x64) AppleWebKit/537.36 (KHTML, like Gecko) Chrome/122.0.0.0 Safari/537.36" etag="Ax9AqFW6fdB8svJqxFwH" version="24.0.7" type="device">
  <diagram id="i7RXxUI2-bZj1F0VMDhx" name="Page-1">
    <mxGraphModel dx="989" dy="538" grid="1" gridSize="10" guides="1" tooltips="1" connect="1" arrows="1" fold="1" page="1" pageScale="1" pageWidth="827" pageHeight="1169" math="0" shadow="0">
      <root>
        <mxCell id="0" />
        <mxCell id="1" parent="0" />
        <mxCell id="oRgYRbeAAk3m6IjGl8aq-1" value="Zoo VIP" style="shape=umlFrame;whiteSpace=wrap;html=1;width=210;height=15;" parent="1" vertex="1">
          <mxGeometry x="200" y="150" width="470" height="370" as="geometry" />
        </mxCell>
        <mxCell id="oRgYRbeAAk3m6IjGl8aq-21" style="edgeStyle=none;orthogonalLoop=1;jettySize=auto;html=1;startFill=0;endArrow=none;endFill=0;" parent="1" source="oRgYRbeAAk3m6IjGl8aq-2" target="oRgYRbeAAk3m6IjGl8aq-12" edge="1">
          <mxGeometry relative="1" as="geometry" />
        </mxCell>
        <mxCell id="oRgYRbeAAk3m6IjGl8aq-22" style="edgeStyle=none;orthogonalLoop=1;jettySize=auto;html=1;entryX=1;entryY=1;entryDx=0;entryDy=0;startFill=0;endArrow=none;endFill=0;" parent="1" source="oRgYRbeAAk3m6IjGl8aq-2" target="oRgYRbeAAk3m6IjGl8aq-11" edge="1">
          <mxGeometry relative="1" as="geometry" />
        </mxCell>
        <mxCell id="oRgYRbeAAk3m6IjGl8aq-2" value="Administrator&lt;br&gt;&lt;br&gt;" style="shape=umlActor;verticalLabelPosition=bottom;verticalAlign=top;html=1;" parent="1" vertex="1">
          <mxGeometry x="720" y="315" width="30" height="60" as="geometry" />
        </mxCell>
        <mxCell id="oRgYRbeAAk3m6IjGl8aq-19" style="orthogonalLoop=1;jettySize=auto;html=1;startArrow=none;startFill=0;endArrow=none;endFill=0;" parent="1" source="oRgYRbeAAk3m6IjGl8aq-3" target="oRgYRbeAAk3m6IjGl8aq-9" edge="1">
          <mxGeometry relative="1" as="geometry" />
        </mxCell>
        <mxCell id="oRgYRbeAAk3m6IjGl8aq-3" value="Pracownik wykorzystujący" style="shape=umlActor;verticalLabelPosition=bottom;verticalAlign=top;html=1;" parent="1" vertex="1">
          <mxGeometry x="70" y="410" width="30" height="60" as="geometry" />
        </mxCell>
        <mxCell id="oRgYRbeAAk3m6IjGl8aq-20" style="edgeStyle=none;orthogonalLoop=1;jettySize=auto;html=1;startFill=0;endArrow=none;endFill=0;" parent="1" source="oRgYRbeAAk3m6IjGl8aq-8" target="oRgYRbeAAk3m6IjGl8aq-10" edge="1">
          <mxGeometry relative="1" as="geometry" />
        </mxCell>
        <mxCell id="oRgYRbeAAk3m6IjGl8aq-8" value="Pracownik wprowadzający dane" style="shape=umlActor;verticalLabelPosition=bottom;verticalAlign=top;html=1;" parent="1" vertex="1">
          <mxGeometry x="70" y="215" width="30" height="60" as="geometry" />
        </mxCell>
        <mxCell id="oRgYRbeAAk3m6IjGl8aq-9" value="5. Wyłuskaj informacje" style="ellipse;whiteSpace=wrap;html=1;" parent="1" vertex="1">
          <mxGeometry x="214" y="420" width="120" height="40" as="geometry" />
        </mxCell>
        <mxCell id="oRgYRbeAAk3m6IjGl8aq-27" style="edgeStyle=none;orthogonalLoop=1;jettySize=auto;html=1;dashed=1;startFill=1;endArrow=none;endFill=0;startArrow=block;" parent="1" source="oRgYRbeAAk3m6IjGl8aq-10" target="oRgYRbeAAk3m6IjGl8aq-18" edge="1">
          <mxGeometry relative="1" as="geometry" />
        </mxCell>
        <mxCell id="oRgYRbeAAk3m6IjGl8aq-10" value="2. Zarządzaj danymi" style="ellipse;whiteSpace=wrap;html=1;" parent="1" vertex="1">
          <mxGeometry x="210" y="220" width="128" height="50" as="geometry" />
        </mxCell>
        <mxCell id="oRgYRbeAAk3m6IjGl8aq-29" style="edgeStyle=none;orthogonalLoop=1;jettySize=auto;html=1;dashed=1;startFill=0;endArrow=block;endFill=1;startArrow=none;" parent="1" source="oRgYRbeAAk3m6IjGl8aq-11" target="oRgYRbeAAk3m6IjGl8aq-17" edge="1">
          <mxGeometry relative="1" as="geometry" />
        </mxCell>
        <mxCell id="oRgYRbeAAk3m6IjGl8aq-11" value="6. Zarządzaj użytkownikami" style="ellipse;whiteSpace=wrap;html=1;" parent="1" vertex="1">
          <mxGeometry x="496" y="260" width="170" height="40" as="geometry" />
        </mxCell>
        <mxCell id="oRgYRbeAAk3m6IjGl8aq-28" style="edgeStyle=none;orthogonalLoop=1;jettySize=auto;html=1;dashed=1;startFill=1;endArrow=none;endFill=0;startArrow=block;" parent="1" source="oRgYRbeAAk3m6IjGl8aq-12" target="oRgYRbeAAk3m6IjGl8aq-16" edge="1">
          <mxGeometry relative="1" as="geometry" />
        </mxCell>
        <mxCell id="oRgYRbeAAk3m6IjGl8aq-12" value="7&lt;span style=&quot;background-color: initial;&quot;&gt;. Zarządzaj raportami&lt;/span&gt;" style="ellipse;whiteSpace=wrap;html=1;" parent="1" vertex="1">
          <mxGeometry x="520" y="420" width="140" height="40" as="geometry" />
        </mxCell>
        <mxCell id="oRgYRbeAAk3m6IjGl8aq-23" style="edgeStyle=none;orthogonalLoop=1;jettySize=auto;html=1;entryX=0.5;entryY=1;entryDx=0;entryDy=0;startFill=0;endArrow=none;endFill=0;" parent="1" source="oRgYRbeAAk3m6IjGl8aq-14" target="oRgYRbeAAk3m6IjGl8aq-15" edge="1">
          <mxGeometry relative="1" as="geometry" />
        </mxCell>
        <mxCell id="oRgYRbeAAk3m6IjGl8aq-14" value="Zoolog" style="shape=umlActor;verticalLabelPosition=bottom;verticalAlign=top;html=1;" parent="1" vertex="1">
          <mxGeometry x="140" y="60" width="30" height="60" as="geometry" />
        </mxCell>
        <mxCell id="oRgYRbeAAk3m6IjGl8aq-26" style="edgeStyle=none;orthogonalLoop=1;jettySize=auto;html=1;dashed=1;startFill=1;endArrow=none;endFill=0;startArrow=block;" parent="1" source="oRgYRbeAAk3m6IjGl8aq-15" target="oRgYRbeAAk3m6IjGl8aq-10" edge="1">
          <mxGeometry relative="1" as="geometry" />
        </mxCell>
        <mxCell id="oRgYRbeAAk3m6IjGl8aq-15" value="1.Narzucaj kryteria" style="ellipse;whiteSpace=wrap;html=1;" parent="1" vertex="1">
          <mxGeometry x="204" y="170" width="140" height="35" as="geometry" />
        </mxCell>
        <mxCell id="oRgYRbeAAk3m6IjGl8aq-25" style="edgeStyle=none;orthogonalLoop=1;jettySize=auto;html=1;entryX=1;entryY=0.5;entryDx=0;entryDy=0;dashed=1;startFill=1;endArrow=none;endFill=0;startArrow=block;" parent="1" source="oRgYRbeAAk3m6IjGl8aq-16" target="oRgYRbeAAk3m6IjGl8aq-9" edge="1">
          <mxGeometry relative="1" as="geometry" />
        </mxCell>
        <mxCell id="oRgYRbeAAk3m6IjGl8aq-16" value="4&lt;span style=&quot;background-color: initial;&quot;&gt;. Generuj raport&lt;/span&gt;" style="ellipse;whiteSpace=wrap;html=1;" parent="1" vertex="1">
          <mxGeometry x="370" y="420" width="126" height="40" as="geometry" />
        </mxCell>
        <mxCell id="oRgYRbeAAk3m6IjGl8aq-30" style="edgeStyle=none;orthogonalLoop=1;jettySize=auto;html=1;dashed=1;startFill=1;endArrow=none;endFill=0;startArrow=block;" parent="1" source="oRgYRbeAAk3m6IjGl8aq-17" target="oRgYRbeAAk3m6IjGl8aq-9" edge="1">
          <mxGeometry relative="1" as="geometry" />
        </mxCell>
        <mxCell id="oRgYRbeAAk3m6IjGl8aq-31" style="edgeStyle=none;orthogonalLoop=1;jettySize=auto;html=1;dashed=1;startFill=1;endArrow=none;endFill=0;startArrow=block;" parent="1" source="oRgYRbeAAk3m6IjGl8aq-17" target="oRgYRbeAAk3m6IjGl8aq-10" edge="1">
          <mxGeometry relative="1" as="geometry" />
        </mxCell>
        <mxCell id="oRgYRbeAAk3m6IjGl8aq-17" value="8. autoryzuj użytkownika" style="ellipse;whiteSpace=wrap;html=1;" parent="1" vertex="1">
          <mxGeometry x="344" y="260" width="110" height="40" as="geometry" />
        </mxCell>
        <mxCell id="oRgYRbeAAk3m6IjGl8aq-24" style="edgeStyle=none;orthogonalLoop=1;jettySize=auto;html=1;startFill=1;endArrow=none;endFill=0;dashed=1;strokeColor=default;startArrow=block;" parent="1" source="oRgYRbeAAk3m6IjGl8aq-18" target="oRgYRbeAAk3m6IjGl8aq-16" edge="1">
          <mxGeometry relative="1" as="geometry" />
        </mxCell>
        <mxCell id="oRgYRbeAAk3m6IjGl8aq-18" value="3. Stwórz tabele" style="ellipse;whiteSpace=wrap;html=1;" parent="1" vertex="1">
          <mxGeometry x="224" y="330" width="100" height="30" as="geometry" />
        </mxCell>
      </root>
    </mxGraphModel>
  </diagram>
</mxfile>
